ffmpeg version 3.4.8-0ubuntu0.2 Copyright (c) 2000-2020 the FFmpeg developers
  built with gcc 7 (Ubuntu 7.5.0-3ubuntu1~18.04)
  configuration: --prefix=/usr --extra-version=0ubuntu0.2 --toolchain=hardened --libdir=/usr/lib/x86_64-linux-gnu --incdir=/usr/include/x86_64-linux-gnu --enable-gpl --disable-stripping --enable-avresample --enable-avisynth --enable-gnutls --enable-ladspa --enable-libass --enable-libbluray --enable-libbs2b --enable-libcaca --enable-libcdio --enable-libflite --enable-libfontconfig --enable-libfreetype --enable-libfribidi --enable-libgme --enable-libgsm --enable-libmp3lame --enable-libmysofa --enable-libopenjpeg --enable-libopenmpt --enable-libopus --enable-libpulse --enable-librubberband --enable-librsvg --enable-libshine --enable-libsnappy --enable-libsoxr --enable-libspeex --enable-libssh --enable-libtheora --enable-libtwolame --enable-libvorbis --enable-libvpx --enable-libwavpack --enable-libwebp --enable-libx265 --enable-libxml2 --enable-libxvid --enable-libzmq --enable-libzvbi --enable-omx --enable-openal --enable-opengl --enable-sdl2 --enable-libdc1394 --enable-libdrm --enable-libiec61883 --enable-chromaprint --enable-frei0r --enable-libopencv --enable-libx264 --enable-shared
  libavutil      55. 78.100 / 55. 78.100
  libavcodec     57.107.100 / 57.107.100
  libavformat    57. 83.100 / 57. 83.100
  libavdevice    57. 10.100 / 57. 10.100
  libavfilter     6.107.100 /  6.107.100
  libavresample   3.  7.  0 /  3.  7.  0
  libswscale      4.  8.100 /  4.  8.100
  libswresample   2.  9.100 /  2.  9.100
  libpostproc    54.  7.100 / 54.  7.100
[rawvideo @ 0x556dcfc0da20] Estimating duration from bitrate, this may be inaccurate
Input #0, rawvideo, from '../../SVC-Encoder-20220109T061506Z-001/SVC-Encoder/Dataset/RollerCoaster/6f_2x2/tile_yuv/f5_t2_480x480.yuv':
  Duration: 00:00:10.00, start: 0.000000, bitrate: 82944 kb/s
    Stream #0:0: Video: rawvideo (I420 / 0x30323449), yuv420p, 480x480, 82944 kb/s, 30 tbr, 30 tbn, 30 tbc
Stream mapping:
  Stream #0:0 -> #0:0 (rawvideo (native) -> h264 (libx264))
Press [q] to stop, [?] for help
[libx264 @ 0x556dcfc1ac60] using cpu capabilities: MMX2 SSE2Fast LZCNT SSSE3 SSE4.2 AVX
[libx264 @ 0x556dcfc1ac60] profile High, level 3.0
Output #0, rawvideo, to 'RollerCoaster_f5_t2_480x480_x264_QP_32.h264':
  Metadata:
    encoder         : Lavf57.83.100
    Stream #0:0: Video: h264 (libx264), yuv420p, 480x480, q=-1--1, 30 fps, 30 tbn, 30 tbc
    Metadata:
      encoder         : Lavc57.107.100 libx264
    Side data:
      cpb: bitrate max/min/avg: 0/0/0 buffer size: 0 vbv_delay: -1
frame=  117 fps=0.0 q=38.0 PSNR=Y:nan U:nan V:nan *:nan size=      66kB time=00:00:02.46 bitrate= 218.6kbits/s speed=4.89x    frame=  197 fps=196 q=38.0 PSNR=Y:nan U:nan V:nan *:nan size=     132kB time=00:00:05.13 bitrate= 210.4kbits/s speed=5.11x    frame=  293 fps=191 q=38.0 PSNR=Y:nan U:nan V:nan *:nan size=     209kB time=00:00:08.33 bitrate= 205.1kbits/s speed=5.42x    frame=  300 fps=168 q=38.0 LPSNR=Y:inf U:inf V:inf *:inf size=     245kB time=00:00:09.93 bitrate= 201.9kbits/s speed=5.56x    
video:245kB audio:0kB subtitle:0kB other streams:0kB global headers:0kB muxing overhead: 0.000000%
[libx264 @ 0x556dcfc1ac60] frame I:2     Avg QP:31.10  size: 13746  PSNR Mean Y:36.37 U:43.27 V:46.58 Avg:37.81 Global:37.75
[libx264 @ 0x556dcfc1ac60] frame P:76    Avg QP:33.11  size:  1903  PSNR Mean Y:34.60 U:42.91 V:45.92 Avg:36.12 Global:36.11
[libx264 @ 0x556dcfc1ac60] frame B:222   Avg QP:37.61  size:   354  PSNR Mean Y:34.39 U:42.79 V:45.94 Avg:35.93 Global:35.91
[libx264 @ 0x556dcfc1ac60] consecutive B-frames:  1.3%  0.0%  0.0% 98.7%
[libx264 @ 0x556dcfc1ac60] mb I  I16..4: 12.4% 80.8%  6.8%
[libx264 @ 0x556dcfc1ac60] mb P  I16..4:  1.3%  2.6%  0.3%  P16..4: 41.3%  8.1%  1.5%  0.0%  0.0%    skip:44.9%
[libx264 @ 0x556dcfc1ac60] mb B  I16..4:  0.0%  0.0%  0.0%  B16..8: 24.5%  1.3%  0.2%  direct: 0.1%  skip:73.9%  L0:32.8% L1:66.7% BI: 0.4%
[libx264 @ 0x556dcfc1ac60] 8x8 transform intra:68.6% inter:79.8%
[libx264 @ 0x556dcfc1ac60] coded y,uvDC,uvAC intra: 56.0% 54.4% 11.8% inter: 4.3% 2.0% 0.0%
[libx264 @ 0x556dcfc1ac60] i16 v,h,dc,p:  8% 57% 21% 14%
[libx264 @ 0x556dcfc1ac60] i8 v,h,dc,ddl,ddr,vr,hd,vl,hu:  5% 27% 21%  8%  9% 11%  6%  4% 10%
[libx264 @ 0x556dcfc1ac60] i4 v,h,dc,ddl,ddr,vr,hd,vl,hu:  6% 30% 28%  5%  9% 12%  3%  2%  5%
[libx264 @ 0x556dcfc1ac60] i8c dc,h,v,p: 48% 35%  8%  9%
[libx264 @ 0x556dcfc1ac60] Weighted P-Frames: Y:1.3% UV:1.3%
[libx264 @ 0x556dcfc1ac60] ref P L0: 60.6% 20.0% 12.3%  6.9%  0.2%
[libx264 @ 0x556dcfc1ac60] ref B L0: 88.9%  9.5%  1.7%
[libx264 @ 0x556dcfc1ac60] ref B L1: 89.4% 10.6%
[libx264 @ 0x556dcfc1ac60] PSNR Mean Y:34.459 U:42.827 V:45.942 Avg:35.989 Global:35.972 kb/s:200.54
